<?xml version="1.0" encoding="utf-8"?>
<!-- Generator: Adobe Illustrator 20.1.0, SVG Export Plug-In . SVG Version: 6.00 Build 0)  -->
<svg version="1.1" id="Warstwa_1" xmlns="http://www.w3.org/2000/svg" xmlns:xlink="http://www.w3.org/1999/xlink" x="0px" y="0px"
	 viewBox="0 0 30 6.6" style="enable-background:new 0 0 30 6.6;fill: #000;" xml:space="preserve">
<g>
	<polygon points="3.5,3.8 1.2,0.9 0,0.9 0,6.6 1.6,6.6 1.6,3.8 3.8,6.6 5,6.6 5,0.9 3.5,0.9 	"/>
	<polygon points="8.9,3.6 7.7,0.9 6,0.9 6,6.6 7.6,6.6 7.6,3.6 8.5,5.7 9.4,5.7 10.3,3.6 10.3,6.6 11.9,6.6 11.9,0.9 10.2,0.9 	"/>
	<path d="M16.6,3.7c0.3-0.1,0.5-0.3,0.6-0.5c0.1-0.2,0.2-0.5,0.2-0.8c0-0.2,0-0.4-0.1-0.5c-0.1-0.2-0.1-0.3-0.3-0.5
		s-0.2-0.2-0.4-0.3s-0.3-0.1-0.5-0.1h-3.3v5.7h2.8c0.3,0,0.5,0,0.8-0.1c0.2-0.1,0.5-0.1,0.7-0.3c0.2-0.1,0.3-0.3,0.4-0.5
		c0.1-0.2,0.2-0.4,0.2-0.7c0-0.4-0.1-0.7-0.3-1C17.2,4,16.9,3.8,16.6,3.7z M14.4,2.3h1.1c0.1,0,0.2,0,0.3,0.1
		c0.1,0.1,0.1,0.2,0.1,0.3c0,0.2,0,0.3-0.1,0.4c-0.1,0.1-0.2,0.1-0.3,0.1h-1.1V2.3z M15.9,5.2c-0.1,0.1-0.2,0.1-0.3,0.1h-1.2V4.4
		h1.3c0.1,0,0.2,0,0.3,0.1c0.1,0.1,0.1,0.2,0.1,0.3C16.1,5,16,5.1,15.9,5.2z"/>
	<path d="M22.6,3.8c0.1-0.3,0.2-0.6,0.2-0.9c0-0.2,0-0.5-0.1-0.7c-0.1-0.2-0.2-0.4-0.4-0.6c-0.2-0.2-0.4-0.3-0.6-0.4
		c-0.2-0.1-0.5-0.2-0.8-0.2h-2.6v5.7h1.6V4.9h0.6l1.1,1.7h1.8L22,4.5C22.3,4.3,22.5,4.1,22.6,3.8z M21.1,3.4
		c-0.1,0.1-0.2,0.2-0.3,0.2h-1V2.3h0.9c0.1,0,0.2,0.1,0.3,0.2s0.1,0.3,0.1,0.5C21.3,3.1,21.2,3.2,21.1,3.4z"/>
	<polygon points="26.8,3.6 25.9,2.7 23.5,5.5 23.5,6.6 28,6.6 28,5.3 25.5,5.3 	"/>
	<polygon points="29.1,0.9 29.1,0 28,0 28,0.9 27.1,0.9 27.1,2 28,2 28,2.9 29.1,2.9 29.1,2 30,2 30,0.9 	"/>
</g>
</svg>
